<svg xmlns="http://www.w3.org/2000/svg" version="1.1" xmlns:xlink="http://www.w3.org/1999/xlink" xmlns:svgjs="http://svgjs.com/svgjs" width="1920" height="480" preserveAspectRatio="none" viewBox="0 0 1920 480">
    <g mask="url(&quot;#SvgjsMask1310&quot;)" fill="none">
        <use xlink:href="#SvgjsG1314" transform="translate(0, 0)" fill="rgba(205, 205, 205, .25)"></use>
        <use xlink:href="#SvgjsG1314" transform="translate(720, 0)" fill="rgba(205, 205, 205, .25)"></use>
        <use xlink:href="#SvgjsG1314" transform="translate(1440, 0)" fill="rgba(205, 205, 205, .25)"></use>
    </g>
    <defs>
        <mask id="SvgjsMask1310">
            <rect width="1920" height="480" fill="#ffffff"></rect>
        </mask>
        <g id="SvgjsG1311">
            <path d="M5.89 12.18S5.43 10.39 2.92 9.47C0.61 8.63-0.83 8.87-0.83 8.87L2.56-0.43s1.44-0.23 3.75 0.59C8.83 1.05 9.28 2.88 9.28 2.88L5.89 12.18z m1.02 0.38s1.51-1.08 4.03-0.17c2.3 0.84 3.26 1.94 3.25 1.94L17.58 5.03s-0.95-1.1-3.25-1.95c-2.51-0.93-4.03 0.18-4.03 0.18l-3.39 9.3z"></path>
            <path d="M5.37 15.27S4.65 12.54 2.13 11.62c-2.3-0.84-3.74-0.6-3.74-0.6l0.4-1.12s1.44-0.23 3.75 0.59c2.52 0.9 3.23 3.67 3.23 3.67L5.37 15.27z m0 0s2.31-1.63 4.82-0.72c2.3 0.84 3.26 1.94 3.26 1.95l0.4-1.12s-0.95-1.1-3.25-1.96c-2.51-0.93-4.83 0.73-4.83 0.74l-0.4 1.11z"></path>
        </g>
        <g id="SvgjsG1312">
            <path d="M11.12 14.13L14.82 3.97 11.93 2.91 12.56 1.22C12.55 1.23 6.25 1.67 6.25 1.67 5.22 1.77 4.68 2.27 4.38 3.1L1.4 11.29c-0.48 1.31 0.18 2.76 1.39 3.19l7.27 2.65L10.61 15.63c-0.85-0.43-0.39-1.7 0.51-1.5z m-7.76-1.32c-0.8-0.29-0.38-1.41 0.4-1.12l5.08 1.85c-0.45 0.13-0.65 0.76-0.36 1.14L3.36 12.81z m6.64-0.65L5.56 10.54l3.7-0.27L11.33 4.56l1.27 0.46-2.6 7.14 0 0z" fill-rule="evenodd"></path>
        </g>
        <g id="SvgjsG1313">
            <path d="M-1.46 11.38l14.53 5.29L12.53 18.16-2 12.87z m1.12-1.22l13.15 4.78-0.3 0.82L-0.64 10.97z m3.72-6.89l2.21 0.81-2.42 6.63-2.21-0.81z m4.41 1.61l2.21 0.8-2.42 6.63-2.21-0.8z m4.24 1.54l2.21 0.8-2.42 6.64L9.61 13.05zM1.99 1.12L10.74 0.48l6.28 6.12-0.32 0.87L1.67 2.01z"></path>
        </g>
        <g id="SvgjsG1314">
            <use xlink:href="#SvgjsG1311" transform="translate(0, 0) scale(2)" fill="rgba(205, 205, 205, .25)"></use>
            <use xlink:href="#SvgjsG1311" transform="translate(0, 72) scale(2)" fill="rgba(205, 205, 205, .25)"></use>
            <use xlink:href="#SvgjsG1312" transform="translate(0, 144) scale(2)" fill="rgba(205, 205, 205, .25)"></use>
            <use xlink:href="#SvgjsG1313" transform="translate(0, 216) scale(2)" fill="rgba(205, 205, 205, .25)"></use>
            <use xlink:href="#SvgjsG1313" transform="translate(0, 288) scale(2)" fill="rgba(205, 205, 205, .25)"></use>
            <use xlink:href="#SvgjsG1313" transform="translate(0, 360) scale(2)" fill="rgba(205, 205, 205, .25)"></use>
            <use xlink:href="#SvgjsG1311" transform="translate(0, 432) scale(2)" fill="rgba(205, 205, 205, .25)"></use>
            <use xlink:href="#SvgjsG1311" transform="translate(72, 0) scale(2)" fill="rgba(205, 205, 205, .25)"></use>
            <use xlink:href="#SvgjsG1312" transform="translate(72, 72) scale(2)" fill="rgba(205, 205, 205, .25)"></use>
            <use xlink:href="#SvgjsG1312" transform="translate(72, 144) scale(2)" fill="rgba(205, 205, 205, .25)"></use>
            <use xlink:href="#SvgjsG1311" transform="translate(72, 216) scale(2)" fill="rgba(205, 205, 205, .25)"></use>
            <use xlink:href="#SvgjsG1311" transform="translate(72, 288) scale(2)" fill="rgba(205, 205, 205, .25)"></use>
            <use xlink:href="#SvgjsG1313" transform="translate(72, 360) scale(2)" fill="rgba(205, 205, 205, .25)"></use>
            <use xlink:href="#SvgjsG1313" transform="translate(72, 432) scale(2)" fill="rgba(205, 205, 205, .25)"></use>
            <use xlink:href="#SvgjsG1313" transform="translate(144, 0) scale(2)" fill="rgba(205, 205, 205, .25)"></use>
            <use xlink:href="#SvgjsG1311" transform="translate(144, 72) scale(2)" fill="rgba(205, 205, 205, .25)"></use>
            <use xlink:href="#SvgjsG1313" transform="translate(144, 144) scale(2)" fill="rgba(205, 205, 205, .25)"></use>
            <use xlink:href="#SvgjsG1313" transform="translate(144, 216) scale(2)" fill="rgba(205, 205, 205, .25)"></use>
            <use xlink:href="#SvgjsG1313" transform="translate(144, 288) scale(2)" fill="rgba(205, 205, 205, .25)"></use>
            <use xlink:href="#SvgjsG1313" transform="translate(144, 360) scale(2)" fill="rgba(205, 205, 205, .25)"></use>
            <use xlink:href="#SvgjsG1311" transform="translate(144, 432) scale(2)" fill="rgba(205, 205, 205, .25)"></use>
            <use xlink:href="#SvgjsG1312" transform="translate(216, 0) scale(2)" fill="rgba(205, 205, 205, .25)"></use>
            <use xlink:href="#SvgjsG1311" transform="translate(216, 72) scale(2)" fill="rgba(205, 205, 205, .25)"></use>
            <use xlink:href="#SvgjsG1313" transform="translate(216, 144) scale(2)" fill="rgba(205, 205, 205, .25)"></use>
            <use xlink:href="#SvgjsG1311" transform="translate(216, 216) scale(2)" fill="rgba(205, 205, 205, .25)"></use>
            <use xlink:href="#SvgjsG1312" transform="translate(216, 288) scale(2)" fill="rgba(205, 205, 205, .25)"></use>
            <use xlink:href="#SvgjsG1311" transform="translate(216, 360) scale(2)" fill="rgba(205, 205, 205, .25)"></use>
            <use xlink:href="#SvgjsG1313" transform="translate(216, 432) scale(2)" fill="rgba(205, 205, 205, .25)"></use>
            <use xlink:href="#SvgjsG1313" transform="translate(288, 0) scale(2)" fill="rgba(205, 205, 205, .25)"></use>
            <use xlink:href="#SvgjsG1312" transform="translate(288, 72) scale(2)" fill="rgba(205, 205, 205, .25)"></use>
            <use xlink:href="#SvgjsG1311" transform="translate(288, 144) scale(2)" fill="rgba(205, 205, 205, .25)"></use>
            <use xlink:href="#SvgjsG1313" transform="translate(288, 216) scale(2)" fill="rgba(205, 205, 205, .25)"></use>
            <use xlink:href="#SvgjsG1312" transform="translate(288, 288) scale(2)" fill="rgba(205, 205, 205, .25)"></use>
            <use xlink:href="#SvgjsG1311" transform="translate(288, 360) scale(2)" fill="rgba(205, 205, 205, .25)"></use>
            <use xlink:href="#SvgjsG1312" transform="translate(288, 432) scale(2)" fill="rgba(205, 205, 205, .25)"></use>
            <use xlink:href="#SvgjsG1313" transform="translate(360, 0) scale(2)" fill="rgba(205, 205, 205, .25)"></use>
            <use xlink:href="#SvgjsG1312" transform="translate(360, 72) scale(2)" fill="rgba(205, 205, 205, .25)"></use>
            <use xlink:href="#SvgjsG1313" transform="translate(360, 144) scale(2)" fill="rgba(205, 205, 205, .25)"></use>
            <use xlink:href="#SvgjsG1313" transform="translate(360, 216) scale(2)" fill="rgba(205, 205, 205, .25)"></use>
            <use xlink:href="#SvgjsG1313" transform="translate(360, 288) scale(2)" fill="rgba(205, 205, 205, .25)"></use>
            <use xlink:href="#SvgjsG1312" transform="translate(360, 360) scale(2)" fill="rgba(205, 205, 205, .25)"></use>
            <use xlink:href="#SvgjsG1313" transform="translate(360, 432) scale(2)" fill="rgba(205, 205, 205, .25)"></use>
            <use xlink:href="#SvgjsG1311" transform="translate(432, 0) scale(2)" fill="rgba(205, 205, 205, .25)"></use>
            <use xlink:href="#SvgjsG1313" transform="translate(432, 72) scale(2)" fill="rgba(205, 205, 205, .25)"></use>
            <use xlink:href="#SvgjsG1313" transform="translate(432, 144) scale(2)" fill="rgba(205, 205, 205, .25)"></use>
            <use xlink:href="#SvgjsG1311" transform="translate(432, 216) scale(2)" fill="rgba(205, 205, 205, .25)"></use>
            <use xlink:href="#SvgjsG1312" transform="translate(432, 288) scale(2)" fill="rgba(205, 205, 205, .25)"></use>
            <use xlink:href="#SvgjsG1313" transform="translate(432, 360) scale(2)" fill="rgba(205, 205, 205, .25)"></use>
            <use xlink:href="#SvgjsG1311" transform="translate(432, 432) scale(2)" fill="rgba(205, 205, 205, .25)"></use>
            <use xlink:href="#SvgjsG1311" transform="translate(504, 0) scale(2)" fill="rgba(205, 205, 205, .25)"></use>
            <use xlink:href="#SvgjsG1311" transform="translate(504, 72) scale(2)" fill="rgba(205, 205, 205, .25)"></use>
            <use xlink:href="#SvgjsG1311" transform="translate(504, 144) scale(2)" fill="rgba(205, 205, 205, .25)"></use>
            <use xlink:href="#SvgjsG1312" transform="translate(504, 216) scale(2)" fill="rgba(205, 205, 205, .25)"></use>
            <use xlink:href="#SvgjsG1313" transform="translate(504, 288) scale(2)" fill="rgba(205, 205, 205, .25)"></use>
            <use xlink:href="#SvgjsG1311" transform="translate(504, 360) scale(2)" fill="rgba(205, 205, 205, .25)"></use>
            <use xlink:href="#SvgjsG1313" transform="translate(504, 432) scale(2)" fill="rgba(205, 205, 205, .25)"></use>
            <use xlink:href="#SvgjsG1312" transform="translate(576, 0) scale(2)" fill="rgba(205, 205, 205, .25)"></use>
            <use xlink:href="#SvgjsG1313" transform="translate(576, 72) scale(2)" fill="rgba(205, 205, 205, .25)"></use>
            <use xlink:href="#SvgjsG1313" transform="translate(576, 144) scale(2)" fill="rgba(205, 205, 205, .25)"></use>
            <use xlink:href="#SvgjsG1313" transform="translate(576, 216) scale(2)" fill="rgba(205, 205, 205, .25)"></use>
            <use xlink:href="#SvgjsG1312" transform="translate(576, 288) scale(2)" fill="rgba(205, 205, 205, .25)"></use>
            <use xlink:href="#SvgjsG1313" transform="translate(576, 360) scale(2)" fill="rgba(205, 205, 205, .25)"></use>
            <use xlink:href="#SvgjsG1311" transform="translate(576, 432) scale(2)" fill="rgba(205, 205, 205, .25)"></use>
            <use xlink:href="#SvgjsG1313" transform="translate(648, 0) scale(2)" fill="rgba(205, 205, 205, .25)"></use>
            <use xlink:href="#SvgjsG1313" transform="translate(648, 72) scale(2)" fill="rgba(205, 205, 205, .25)"></use>
            <use xlink:href="#SvgjsG1313" transform="translate(648, 144) scale(2)" fill="rgba(205, 205, 205, .25)"></use>
            <use xlink:href="#SvgjsG1311" transform="translate(648, 216) scale(2)" fill="rgba(205, 205, 205, .25)"></use>
            <use xlink:href="#SvgjsG1312" transform="translate(648, 288) scale(2)" fill="rgba(205, 205, 205, .25)"></use>
            <use xlink:href="#SvgjsG1311" transform="translate(648, 360) scale(2)" fill="rgba(205, 205, 205, .25)"></use>
            <use xlink:href="#SvgjsG1311" transform="translate(648, 432) scale(2)" fill="rgba(205, 205, 205, .25)"></use>
        </g>
    </defs>
</svg>